<svg width="100%" viewBox="0 0 680 380" xmlns="http://www.w3.org/2000/svg">
<style>.bg-hero{fill:#0a1826}.rack-upright{fill:#152e4a;stroke:#1e4a72;stroke-width:0.6}.floor{fill:#0d2035;stroke:#1a3d5f;stroke-width:0.5}.light-shaft{fill:#ffffff;opacity:0.025}.pallet{fill:#1a3350;stroke:#234d78;stroke-width:0.5}.pallet-dk{fill:#142840;stroke:#1e3f66;stroke-width:0.5}</style>
<rect width="680" height="380" class="bg-hero"/>
<rect x="0" y="310" width="680" height="70" class="floor"/>
<line x1="0" y1="310" x2="680" y2="310" stroke="#1e4a72" stroke-width="0.8"/>
<line x1="0" y1="325" x2="680" y2="325" stroke="#1a3d5f" stroke-width="0.3" opacity="0.5"/>
<polygon points="180,0 240,0 340,310 220,310" class="light-shaft"/>
<polygon points="300,0 380,0 460,310 340,310" class="light-shaft" style="opacity:0.018"/>
<polygon points="420,0 500,0 580,310 460,310" class="light-shaft" style="opacity:0.015"/>
<line x1="0" y1="18" x2="680" y2="18" stroke="#1e4a72" stroke-width="1"/>
<line x1="120" y1="0" x2="120" y2="18" stroke="#1e4a72" stroke-width="0.8"/>
<line x1="240" y1="0" x2="240" y2="18" stroke="#1e4a72" stroke-width="0.8"/>
<line x1="360" y1="0" x2="360" y2="18" stroke="#1e4a72" stroke-width="0.8"/>
<line x1="480" y1="0" x2="480" y2="18" stroke="#1e4a72" stroke-width="0.8"/>
<g transform="translate(30,0)"><rect x="0" y="40" width="7" height="270" class="rack-upright"/><rect x="93" y="40" width="7" height="270" class="rack-upright"/><rect x="0" y="40" width="100" height="5" class="rack-upright"/><rect x="0" y="95" width="100" height="5" class="rack-upright" style="fill:#132540"/><rect x="0" y="150" width="100" height="5" class="rack-upright" style="fill:#132540"/><rect x="0" y="205" width="100" height="5" class="rack-upright" style="fill:#132540"/><rect x="0" y="260" width="100" height="5" class="rack-upright" style="fill:#132540"/><rect x="0" y="305" width="100" height="5" class="rack-upright"/><rect x="4" y="48" width="89" height="42" class="pallet"/><rect x="4" y="100" width="89" height="45" class="pallet-dk"/><rect x="4" y="155" width="89" height="45" class="pallet"/><rect x="4" y="210" width="89" height="45" class="pallet-dk"/><rect x="4" y="265" width="89" height="35" class="pallet"/><circle cx="3.5" cy="72" r="2.5" fill="#0a1826"/><circle cx="3.5" cy="125" r="2.5" fill="#0a1826"/><circle cx="3.5" cy="178" r="2.5" fill="#0a1826"/><circle cx="3.5" cy="231" r="2.5" fill="#0a1826"/></g>
<g transform="translate(145,0)"><rect x="0" y="55" width="6" height="255" class="rack-upright"/><rect x="88" y="55" width="6" height="255" class="rack-upright"/><rect x="0" y="55" width="94" height="4" class="rack-upright"/><rect x="0" y="106" width="94" height="4" class="rack-upright" style="fill:#132540"/><rect x="0" y="157" width="94" height="4" class="rack-upright" style="fill:#132540"/><rect x="0" y="208" width="94" height="4" class="rack-upright" style="fill:#132540"/><rect x="0" y="259" width="94" height="4" class="rack-upright" style="fill:#132540"/><rect x="0" y="305" width="94" height="4" class="rack-upright"/><rect x="3" y="59" width="88" height="42" class="pallet-dk"/><rect x="3" y="110" width="88" height="42" class="pallet"/><rect x="3" y="161" width="88" height="42" class="pallet-dk"/><rect x="3" y="212" width="88" height="42" class="pallet"/><rect x="3" y="263" width="88" height="38" class="pallet-dk"/><circle cx="3" cy="82" r="2" fill="#0a1826"/><circle cx="3" cy="133" r="2" fill="#0a1826"/><circle cx="3" cy="184" r="2" fill="#0a1826"/><circle cx="3" cy="235" r="2" fill="#0a1826"/></g>
<g transform="translate(252,0)"><rect x="0" y="68" width="5" height="242" class="rack-upright"/><rect x="82" y="68" width="5" height="242" class="rack-upright"/><rect x="0" y="68" width="87" height="4" class="rack-upright"/><rect x="0" y="114" width="87" height="4" class="rack-upright" style="fill:#132540"/><rect x="0" y="160" width="87" height="4" class="rack-upright" style="fill:#132540"/><rect x="0" y="206" width="87" height="4" class="rack-upright" style="fill:#132540"/><rect x="0" y="252" width="87" height="4" class="rack-upright" style="fill:#132540"/><rect x="0" y="305" width="87" height="4" class="rack-upright"/><rect x="3" y="72" width="81" height="37" class="pallet"/><rect x="3" y="118" width="81" height="37" class="pallet-dk"/><rect x="3" y="164" width="81" height="37" class="pallet"/><rect x="3" y="210" width="81" height="37" class="pallet-dk"/><rect x="3" y="256" width="81" height="44" class="pallet"/><circle cx="3" cy="92" r="1.8" fill="#0a1826"/><circle cx="3" cy="138" r="1.8" fill="#0a1826"/><circle cx="3" cy="184" r="1.8" fill="#0a1826"/></g>
<g transform="translate(352,0)"><rect x="0" y="82" width="4" height="228" class="rack-upright" style="fill:#112236"/><rect x="74" y="82" width="4" height="228" class="rack-upright" style="fill:#112236"/><rect x="0" y="82" width="78" height="3" class="rack-upright" style="fill:#112236"/><rect x="0" y="124" width="78" height="3" class="rack-upright" style="fill:#0f1e30"/><rect x="0" y="166" width="78" height="3" class="rack-upright" style="fill:#0f1e30"/><rect x="0" y="208" width="78" height="3" class="rack-upright" style="fill:#0f1e30"/><rect x="0" y="250" width="78" height="3" class="rack-upright" style="fill:#0f1e30"/><rect x="0" y="305" width="78" height="3" class="rack-upright" style="fill:#112236"/><rect x="2" y="85" width="74" height="35" class="pallet-dk" style="fill:#0f2035"/><rect x="2" y="127" width="74" height="35" class="pallet" style="fill:#112236"/><rect x="2" y="169" width="74" height="35" class="pallet-dk" style="fill:#0f2035"/><rect x="2" y="211" width="74" height="35" class="pallet" style="fill:#112236"/><rect x="2" y="253" width="74" height="49" class="pallet-dk" style="fill:#0f2035"/></g>
<g transform="translate(444,0)"><rect x="0" y="96" width="3" height="214" class="rack-upright" style="fill:#0e1c2c"/><rect x="65" y="96" width="3" height="214" class="rack-upright" style="fill:#0e1c2c"/><rect x="0" y="96" width="68" height="3" class="rack-upright" style="fill:#0e1c2c"/><rect x="0" y="133" width="68" height="3" class="rack-upright" style="fill:#0c1928"/><rect x="0" y="170" width="68" height="3" class="rack-upright" style="fill:#0c1928"/><rect x="0" y="207" width="68" height="3" class="rack-upright" style="fill:#0c1928"/><rect x="0" y="244" width="68" height="3" class="rack-upright" style="fill:#0c1928"/><rect x="0" y="305" width="68" height="3" class="rack-upright" style="fill:#0e1c2c"/><rect x="2" y="99" width="64" height="30" class="pallet-dk" style="fill:#0d1e30;opacity:0.9"/><rect x="2" y="136" width="64" height="30" class="pallet" style="fill:#0f2035;opacity:0.9"/><rect x="2" y="173" width="64" height="30" class="pallet-dk" style="fill:#0d1e30;opacity:0.9"/><rect x="2" y="210" width="64" height="30" class="pallet" style="fill:#0f2035;opacity:0.9"/><rect x="2" y="247" width="64" height="54" class="pallet-dk" style="fill:#0d1e30;opacity:0.9"/></g>
<g transform="translate(524,0)" opacity="0.65"><rect x="0" y="108" width="2.5" height="202" class="rack-upright" style="fill:#0c1826"/><rect x="56" y="108" width="2.5" height="202" class="rack-upright" style="fill:#0c1826"/><rect x="0" y="108" width="59" height="2" class="rack-upright" style="fill:#0c1826"/><rect x="0" y="143" width="59" height="2" class="rack-upright" style="fill:#0a1620"/><rect x="0" y="178" width="59" height="2" class="rack-upright" style="fill:#0a1620"/><rect x="0" y="213" width="59" height="2" class="rack-upright" style="fill:#0a1620"/><rect x="0" y="248" width="59" height="2" class="rack-upright" style="fill:#0a1620"/><rect x="0" y="305" width="59" height="2" class="rack-upright" style="fill:#0c1826"/></g>
<rect x="155" y="16" width="60" height="6" rx="1" fill="#1a3d5f" opacity="0.8"/>
<rect x="335" y="16" width="60" height="6" rx="1" fill="#1a3d5f" opacity="0.8"/>
<polygon points="170,22 200,22 260,310 130,310" fill="#ffffff" opacity="0.012"/>
<polygon points="350,22 380,22 420,310 310,310" fill="#ffffff" opacity="0.010"/>
</svg>
