<svg width="100%" viewBox="0 0 680 220" xmlns="http://www.w3.org/2000/svg">
<style>.bg7{fill:#081220}.fl7{fill:#0a1c2e;stroke:#152a40;stroke-width:0.5}.up7{fill:#122436;stroke:#1a3858;stroke-width:0.8}.bm7{fill:#162e4c;stroke:#1e4268;stroke-width:0.5}.pl7{fill:#0e1e30;stroke:#162840;stroke-width:0.3}.pl7b{fill:#0c1c2c;stroke:#12243a;stroke-width:0.3}.ck7{fill:#1a3a28;stroke:#225235;stroke-width:0.8}</style>
<rect width="680" height="220" class="bg7"/>
<rect x="0" y="188" width="680" height="32" class="fl7"/>
<line x1="0" y1="188" x2="680" y2="188" stroke="#152a40" stroke-width="0.8"/>
<rect x="0" y="0" width="680" height="16" class="up7"/>
<line x1="0" y1="16" x2="680" y2="16" stroke="#1a3858" stroke-width="0.6"/>
<g><rect x="10" y="18" width="10" height="170" class="up7"/><rect x="90" y="18" width="10" height="170" class="up7"/><rect x="10" y="18" width="80" height="7" class="bm7"/><rect x="10" y="58" width="80" height="7" class="bm7"/><rect x="10" y="98" width="80" height="7" class="bm7"/><rect x="10" y="138" width="80" height="7" class="bm7"/><rect x="10" y="178" width="80" height="7" class="bm7"/><rect x="13" y="25" width="76" height="30" class="pl7"/><rect x="13" y="65" width="76" height="30" class="pl7b"/><rect x="13" y="105" width="76" height="30" class="pl7"/><rect x="13" y="145" width="76" height="30" class="pl7b"/></g>
<g><rect x="160" y="18" width="9" height="170" class="up7"/><rect x="264" y="18" width="9" height="170" class="up7"/><rect x="160" y="18" width="113" height="6" class="bm7"/><rect x="160" y="56" width="113" height="6" class="bm7"/><rect x="160" y="94" width="113" height="6" class="bm7"/><rect x="160" y="132" width="113" height="6" class="bm7"/><rect x="160" y="170" width="113" height="6" class="bm7"/><rect x="163" y="24" width="107" height="29" class="pl7b"/><rect x="163" y="62" width="107" height="29" class="pl7"/><rect x="163" y="100" width="107" height="29" class="pl7b"/><rect x="163" y="138" width="107" height="29" class="pl7"/></g>
<g><rect x="284" y="18" width="8" height="170" class="up7"/><rect x="388" y="18" width="8" height="170" class="up7"/><rect x="284" y="18" width="112" height="6" class="bm7"/><rect x="284" y="56" width="112" height="6" class="bm7"/><rect x="284" y="94" width="112" height="6" class="bm7"/><rect x="284" y="132" width="112" height="6" class="bm7"/><rect x="284" y="170" width="112" height="6" class="bm7"/><rect x="287" y="24" width="106" height="29" class="pl7"/><rect x="287" y="62" width="106" height="29" class="pl7b"/><rect x="287" y="100" width="106" height="29" class="pl7"/><rect x="287" y="138" width="106" height="29" class="pl7b"/></g>
<g><rect x="408" y="18" width="9" height="170" class="up7"/><rect x="510" y="18" width="9" height="170" class="up7"/><rect x="408" y="18" width="111" height="6" class="bm7"/><rect x="408" y="56" width="111" height="6" class="bm7"/><rect x="408" y="94" width="111" height="6" class="bm7"/><rect x="408" y="132" width="111" height="6" class="bm7"/><rect x="408" y="170" width="111" height="6" class="bm7"/><rect x="411" y="24" width="105" height="29" class="pl7b"/><rect x="411" y="62" width="105" height="29" class="pl7"/><rect x="411" y="100" width="105" height="29" class="pl7b"/><rect x="411" y="138" width="105" height="29" class="pl7"/></g>
<g><rect x="578" y="18" width="10" height="170" class="up7"/><rect x="658" y="18" width="10" height="170" class="up7"/><rect x="578" y="18" width="90" height="6" class="bm7"/><rect x="578" y="56" width="90" height="6" class="bm7"/><rect x="578" y="94" width="90" height="6" class="bm7"/><rect x="578" y="132" width="90" height="6" class="bm7"/><rect x="578" y="170" width="90" height="6" class="bm7"/><rect x="581" y="24" width="84" height="29" class="pl7b"/><rect x="581" y="62" width="84" height="29" class="pl7"/><rect x="581" y="100" width="84" height="29" class="pl7b"/><rect x="581" y="138" width="84" height="29" class="pl7"/></g>
<circle cx="620" cy="50" r="20" class="ck7"/>
<path d="M610 50 L618 58 L634 42" fill="none" stroke="#4aaa6a" stroke-width="2.5" stroke-linecap="round" stroke-linejoin="round"/>
</svg>