<svg width="100%" viewBox="0 0 680 220" xmlns="http://www.w3.org/2000/svg">
<style>.bg5{fill:#09131d}.fl{fill:#0c1e2e;stroke:#162e44;stroke-width:0.6}.eq{fill:#102030;stroke:#1a3550;stroke-width:0.8}.eq-b{fill:#162840;stroke:#1e4068;stroke-width:0.8}.la{fill:#1a3d6a;stroke:#2e6096;stroke-width:0.5;fill-opacity:0.3}.ln{stroke:#2e6eb8;stroke-width:0.6;fill:none}.rs{fill:#112236;stroke:#1a3550;stroke-width:0.6}.tx{fill:#2e6eb8;font-family:sans-serif;font-size:9px}</style>
<rect width="680" height="220" class="bg5"/>
<rect x="0" y="180" width="680" height="40" class="fl"/>
<line x1="0" y1="180" x2="680" y2="180" stroke="#162e44" stroke-width="0.8"/>
<rect x="80" y="30" width="10" height="150" class="rs"/><rect x="220" y="30" width="10" height="150" class="rs"/><rect x="360" y="30" width="10" height="150" class="rs"/><rect x="500" y="30" width="10" height="150" class="rs"/>
<rect x="80" y="30" width="140" height="7" class="rs"/><rect x="80" y="72" width="140" height="7" class="rs"/><rect x="80" y="114" width="140" height="7" class="rs"/><rect x="80" y="156" width="140" height="7" class="rs"/>
<rect x="220" y="30" width="140" height="7" class="rs"/><rect x="220" y="72" width="140" height="7" class="rs"/><rect x="220" y="114" width="140" height="7" class="rs"/><rect x="220" y="156" width="140" height="7" class="rs"/>
<rect x="360" y="30" width="140" height="7" class="rs"/><rect x="360" y="72" width="140" height="7" class="rs"/><rect x="360" y="114" width="140" height="7" class="rs"/><rect x="360" y="156" width="140" height="7" class="rs"/>
<rect x="580" y="130" width="18" height="22" rx="2" class="eq-b"/>
<line x1="589" y1="152" x2="575" y2="180" stroke="#1a3550" stroke-width="1"/>
<line x1="589" y1="152" x2="589" y2="180" stroke="#1a3550" stroke-width="1"/>
<line x1="589" y1="152" x2="603" y2="180" stroke="#1a3550" stroke-width="1"/>
<circle cx="589" cy="128" r="4" class="eq-b"/>
<line x1="580" y1="140" x2="80" y2="140" stroke="#2e6eb8" stroke-width="0.6" opacity="0.6"/>
<rect x="88" y="36" width="62" height="28" class="la"/>
<text x="94" y="50" class="tx">H: 4800</text><text x="94" y="60" class="tx">mm</text>
<rect x="228" y="78" width="62" height="28" class="la"/>
<text x="234" y="92" class="tx">L: 2700</text><text x="234" y="102" class="tx">mm</text>
<rect x="608" y="50" width="50" height="64" rx="2" class="eq"/>
<rect x="612" y="56" width="42" height="44" fill="#09131d" opacity="0.8"/>
<line x1="616" y1="64" x2="650" y2="64" stroke="#1a3550" stroke-width="0.5"/>
<line x1="616" y1="72" x2="650" y2="72" stroke="#1a3550" stroke-width="0.5"/>
<line x1="616" y1="80" x2="650" y2="80" stroke="#1a3550" stroke-width="0.5"/>
<line x1="616" y1="88" x2="640" y2="88" stroke="#1a3550" stroke-width="0.5"/>
</svg>