<svg width="100%" viewBox="0 0 680 300" xmlns="http://www.w3.org/2000/svg">
<style>.bg3{fill:#08131e}.steel{fill:#12253a;stroke:#1e4068;stroke-width:1}.steel-b{fill:#1a3554;stroke:#2a5a8a;stroke-width:0.8}.hole{fill:#08131e}.new{fill:#163350;stroke:#3070aa;stroke-width:1.2}.callout{stroke:#1e4a72;stroke-width:0.5;fill:none;stroke-dasharray:2 2}.lbl{fill:#3a7ab8;font-family:sans-serif;font-size:10px}.dt{fill:#1e4a80;font-family:monospace;font-size:9px}</style>
<rect width="680" height="300" class="bg3"/>
<g transform="translate(120,40)"><rect x="-28" y="0" width="56" height="12" class="steel-b"/><rect x="-28" y="208" width="56" height="12" class="steel-b"/><rect x="-7" y="12" width="14" height="196" class="steel"/><ellipse cx="0" cy="50" rx="6" ry="7" class="hole" stroke="#1e4068" stroke-width="0.5"/><ellipse cx="0" cy="90" rx="6" ry="7" class="hole" stroke="#1e4068" stroke-width="0.5"/><ellipse cx="0" cy="130" rx="6" ry="7" class="hole" stroke="#1e4068" stroke-width="0.5"/><ellipse cx="0" cy="170" rx="6" ry="7" class="hole" stroke="#1e4068" stroke-width="0.5"/></g>
<g transform="translate(280,80)"><rect x="0" y="0" width="120" height="16" class="steel-b"/><rect x="0" y="16" width="120" height="64" class="steel"/><rect x="0" y="80" width="120" height="16" class="steel-b"/><rect x="-12" y="8" width="14" height="8" rx="1" class="new"/><rect x="-12" y="80" width="14" height="8" rx="1" class="new"/><circle cx="20" cy="48" r="5" class="hole" stroke="#2a5a8a" stroke-width="0.5"/><circle cx="60" cy="48" r="5" class="hole" stroke="#2a5a8a" stroke-width="0.5"/><circle cx="100" cy="48" r="5" class="hole" stroke="#2a5a8a" stroke-width="0.5"/><circle cx="20" cy="48" r="3" fill="#1e4068" stroke="#2e6096" stroke-width="0.8"/><circle cx="60" cy="48" r="3" fill="#1e4068" stroke="#2e6096" stroke-width="0.8"/></g>
<rect x="98" y="158" width="76" height="60" fill="none" stroke="#a02020" stroke-width="0.8" stroke-dasharray="3 2" opacity="0.7"/>
<rect x="108" y="162" width="56" height="52" class="new" opacity="0.7"/>
<circle cx="118" cy="172" r="3" fill="#08131e" stroke="#3070aa" stroke-width="0.6"/><circle cx="154" cy="172" r="3" fill="#08131e" stroke="#3070aa" stroke-width="0.6"/><circle cx="118" cy="204" r="3" fill="#08131e" stroke="#3070aa" stroke-width="0.6"/><circle cx="154" cy="204" r="3" fill="#08131e" stroke="#3070aa" stroke-width="0.6"/>
<line x1="176" y1="188" x2="220" y2="188" stroke="#3a7ab8" stroke-width="0.5" stroke-dasharray="2 2" opacity="0.7"/>
<text x="226" y="192" class="lbl">Repair plate</text>
<line x1="92" y1="50" x2="50" y2="50" stroke="#3a7ab8" stroke-width="0.5" stroke-dasharray="2 2" opacity="0.7"/>
<text x="12" y="54" class="lbl">Upright</text>
<line x1="280" y1="48" x2="250" y2="80" stroke="#3a7ab8" stroke-width="0.5" stroke-dasharray="2 2" opacity="0.7"/>
<text x="196" y="84" class="lbl">New beam</text>
<rect x="480" y="40" width="170" height="220" fill="#0c1e2e" stroke="#1a3550" stroke-width="0.5"/>
<line x1="480" y1="64" x2="650" y2="64" stroke="#1a3550" stroke-width="0.5"/>
<text x="565" y="58" class="lbl" text-anchor="middle" style="font-size:9px">COMPONENT SPEC</text>
<text x="495" y="84" class="dt">Upright gauge</text><text x="638" y="84" class="dt" text-anchor="end">2.5 mm</text>
<line x1="495" y1="90" x2="638" y2="90" stroke="#132a40" stroke-width="0.3"/>
<text x="495" y="108" class="dt">Column depth</text><text x="638" y="108" class="dt" text-anchor="end">90x55</text>
<line x1="495" y1="114" x2="638" y2="114" stroke="#132a40" stroke-width="0.3"/>
<text x="495" y="132" class="dt">Beam load</text><text x="638" y="132" class="dt" text-anchor="end">2500 kg</text>
<line x1="495" y1="138" x2="638" y2="138" stroke="#132a40" stroke-width="0.3"/>
<text x="495" y="156" class="dt">Standard</text><text x="638" y="156" class="dt" text-anchor="end">AS4084</text>
<line x1="495" y1="162" x2="638" y2="162" stroke="#132a40" stroke-width="0.3"/>
<text x="495" y="180" class="dt">Status</text><text x="638" y="180" class="dt" text-anchor="end" style="fill:#2a8040">Approved</text>
</svg>