<svg width="100%" viewBox="0 0 680 300" xmlns="http://www.w3.org/2000/svg">
<style>.bg{fill:#0a1826}.grid{stroke:#0e2236;stroke-width:0.5}.fill-rack{fill:#0d1f33;stroke:#2e6eb8;stroke-width:0.8}.fill-beam{fill:#142a44;stroke:#1e4a80;stroke-width:0.5}.dim-text{fill:#2e6eb8;font-family:monospace;font-size:9px}.label{fill:#3a82d4;font-family:sans-serif;font-size:10px}</style>
<rect width="680" height="300" class="bg"/>
<g class="grid"><line x1="0" y1="20" x2="680" y2="20"/><line x1="0" y1="40" x2="680" y2="40"/><line x1="0" y1="60" x2="680" y2="60"/><line x1="0" y1="80" x2="680" y2="80"/><line x1="0" y1="100" x2="680" y2="100"/><line x1="0" y1="120" x2="680" y2="120"/><line x1="0" y1="140" x2="680" y2="140"/><line x1="0" y1="160" x2="680" y2="160"/><line x1="0" y1="180" x2="680" y2="180"/><line x1="0" y1="200" x2="680" y2="200"/><line x1="0" y1="220" x2="680" y2="220"/><line x1="0" y1="240" x2="680" y2="240"/><line x1="0" y1="260" x2="680" y2="260"/><line x1="0" y1="280" x2="680" y2="280"/><line x1="20" y1="0" x2="20" y2="300"/><line x1="60" y1="0" x2="60" y2="300"/><line x1="100" y1="0" x2="100" y2="300"/><line x1="140" y1="0" x2="140" y2="300"/><line x1="180" y1="0" x2="180" y2="300"/><line x1="220" y1="0" x2="220" y2="300"/><line x1="260" y1="0" x2="260" y2="300"/><line x1="300" y1="0" x2="300" y2="300"/><line x1="340" y1="0" x2="340" y2="300"/><line x1="380" y1="0" x2="380" y2="300"/><line x1="420" y1="0" x2="420" y2="300"/><line x1="460" y1="0" x2="460" y2="300"/><line x1="500" y1="0" x2="500" y2="300"/><line x1="540" y1="0" x2="540" y2="300"/><line x1="580" y1="0" x2="580" y2="300"/><line x1="620" y1="0" x2="620" y2="300"/><line x1="660" y1="0" x2="660" y2="300"/></g>
<rect x="100" y="30" width="12" height="230" class="fill-rack"/>
<rect x="568" y="30" width="12" height="230" class="fill-rack"/>
<rect x="100" y="30" width="480" height="10" class="fill-beam"/>
<rect x="100" y="82" width="480" height="8" class="fill-beam"/>
<rect x="100" y="134" width="480" height="8" class="fill-beam"/>
<rect x="100" y="186" width="480" height="8" class="fill-beam"/>
<rect x="100" y="238" width="480" height="8" class="fill-beam"/>
<rect x="100" y="252" width="480" height="8" class="fill-rack"/>
<line x1="112" y1="40" x2="568" y2="252" stroke="#1e4a80" stroke-width="0.6"/>
<line x1="568" y1="40" x2="112" y2="252" stroke="#1e4a80" stroke-width="0.6"/>
<circle cx="106" cy="60" r="3.5" fill="#0a1826"/><circle cx="106" cy="110" r="3.5" fill="#0a1826"/><circle cx="106" cy="160" r="3.5" fill="#0a1826"/><circle cx="106" cy="210" r="3.5" fill="#0a1826"/>
<circle cx="574" cy="60" r="3.5" fill="#0a1826"/><circle cx="574" cy="110" r="3.5" fill="#0a1826"/><circle cx="574" cy="160" r="3.5" fill="#0a1826"/><circle cx="574" cy="210" r="3.5" fill="#0a1826"/>
<line x1="76" y1="30" x2="76" y2="260" stroke="#1e4a80" stroke-width="0.5"/><line x1="70" y1="30" x2="82" y2="30" stroke="#1e4a80" stroke-width="0.5"/><line x1="70" y1="260" x2="82" y2="260" stroke="#1e4a80" stroke-width="0.5"/>
<line x1="100" y1="14" x2="580" y2="14" stroke="#1e4a80" stroke-width="0.5"/><line x1="100" y1="8" x2="100" y2="20" stroke="#1e4a80" stroke-width="0.5"/><line x1="580" y1="8" x2="580" y2="20" stroke="#1e4a80" stroke-width="0.5"/>
<text x="340" y="10" class="dim-text" text-anchor="middle">2700 mm</text>
<line x1="614" y1="30" x2="614" y2="252" stroke="#1e4a80" stroke-width="0.5"/>
<text x="632" y="56" class="dim-text">L1</text><text x="632" y="108" class="dim-text">L2</text><text x="632" y="160" class="dim-text">L3</text><text x="632" y="212" class="dim-text">L4</text>
<line x1="340" y1="24" x2="340" y2="268" stroke="#1a3d6a" stroke-width="0.5" stroke-dasharray="3 3"/>
<rect x="100" y="272" width="480" height="22" fill="none" stroke="#1e4a80" stroke-width="0.5"/>
<line x1="340" y1="272" x2="340" y2="294" stroke="#1e4a80" stroke-width="0.5"/>
<text x="220" y="286" class="label" text-anchor="middle">Rack elevation — front view</text>
<text x="450" y="286" class="dim-text" text-anchor="middle">Scale 1:50  Rev A</text>
</svg>