<svg width="100%" viewBox="0 0 680 300" xmlns="http://www.w3.org/2000/svg">
<style>.bg2{fill:#09141f}.fl{fill:#0c1e30;stroke:#162e44;stroke-width:0.6}.struct{fill:#152a40;stroke:#1e4472;stroke-width:0.8}.struct-dk{fill:#0f2035;stroke:#162e52;stroke-width:0.5}.beam-b{fill:#1e3d5f;stroke:#2a5280;stroke-width:0.8}.bolt{fill:#1a3550;stroke:#2e6096;stroke-width:0.5}.sc{stroke:#162e4a;stroke-width:0.8;fill:none}.gw{fill:#2e6eb8;opacity:0.15}</style>
<rect width="680" height="300" class="bg2"/>
<rect x="0" y="0" width="680" height="22" class="struct-dk"/>
<line x1="0" y1="22" x2="680" y2="22" stroke="#1e4472" stroke-width="0.8"/>
<line x1="60" y1="0" x2="60" y2="22" stroke="#1e4472" stroke-width="1"/><line x1="160" y1="0" x2="160" y2="22" stroke="#1e4472" stroke-width="1"/><line x1="260" y1="0" x2="260" y2="22" stroke="#1e4472" stroke-width="1"/><line x1="360" y1="0" x2="360" y2="22" stroke="#1e4472" stroke-width="1"/><line x1="460" y1="0" x2="460" y2="22" stroke="#1e4472" stroke-width="1"/><line x1="560" y1="0" x2="560" y2="22" stroke="#1e4472" stroke-width="1"/>
<ellipse cx="340" cy="22" rx="120" ry="30" class="gw"/>
<rect x="0" y="268" width="680" height="32" class="fl"/>
<line x1="0" y1="268" x2="680" y2="268" stroke="#162e44" stroke-width="1"/>
<rect x="180" y="30" width="14" height="238" class="struct"/>
<rect x="430" y="80" width="14" height="188" class="struct"/>
<rect x="180" y="198" width="264" height="10" class="beam-b"/>
<rect x="180" y="238" width="264" height="10" class="beam-b"/>
<rect x="180" y="258" width="264" height="10" class="struct"/>
<rect x="154" y="148" width="230" height="9" class="struct" transform="rotate(-1.5,154,152)"/>
<rect x="160" y="110" width="200" height="8" fill="none" stroke="#2a5280" stroke-dasharray="4 2"/>
<circle cx="192" cy="203" r="4" class="bolt"/><circle cx="192" cy="243" r="4" class="bolt"/><circle cx="436" cy="203" r="4" class="bolt"/><circle cx="436" cy="243" r="4" class="bolt"/>
<circle cx="187" cy="60" r="3" fill="#09141f"/><circle cx="187" cy="90" r="3" fill="#09141f"/><circle cx="187" cy="120" r="3" fill="#09141f"/><circle cx="187" cy="150" r="3" fill="#09141f"/>
<line x1="490" y1="100" x2="490" y2="268" class="sc"/><line x1="540" y1="100" x2="540" y2="268" class="sc"/><line x1="490" y1="100" x2="540" y2="100" class="sc"/><line x1="490" y1="160" x2="540" y2="160" class="sc"/><line x1="490" y1="220" x2="540" y2="220" class="sc"/>
<rect x="488" y="155" width="54" height="6" class="struct-dk" opacity="0.8"/>
<rect x="488" y="215" width="54" height="6" class="struct-dk" opacity="0.8"/>
<line x1="140" y1="198" x2="500" y2="198" stroke="#2e6eb8" stroke-width="0.4" stroke-dasharray="1 2" opacity="0.4"/>
<circle cx="140" cy="198" r="3" fill="#2e6eb8" opacity="0.4"/>
</svg>