<svg width="100%" viewBox="0 0 680 420" xmlns="http://www.w3.org/2000/svg">
<style>.bg8{fill:#060f18}.fl8{fill:#091828;stroke:#102030;stroke-width:0.5}.ce8{fill:#0a1a28;stroke:#112236;stroke-width:0.5}.up8{fill:#0f2035;stroke:#162e4a;stroke-width:0.8}.bm8{fill:#132840;stroke:#1a3858;stroke-width:0.5}.pl8{fill:#0c1e30;stroke:#10263a;stroke-width:0.3}.pl8b{fill:#0a1c2e;stroke:#0e2236;stroke-width:0.3}.gl8{fill:#1a3d6a;opacity:0.2}.ray8{fill:#ffffff;opacity:0.022}</style>
<rect width="680" height="420" class="bg8"/>
<rect x="0" y="0" width="680" height="28" class="ce8"/>
<line x1="0" y1="28" x2="680" y2="28" stroke="#162e4a" stroke-width="0.8"/>
<line x1="80" y1="0" x2="80" y2="28" stroke="#162e4a" stroke-width="0.8"/><line x1="180" y1="0" x2="180" y2="28" stroke="#162e4a" stroke-width="0.8"/><line x1="280" y1="0" x2="280" y2="28" stroke="#162e4a" stroke-width="0.8"/><line x1="380" y1="0" x2="380" y2="28" stroke="#162e4a" stroke-width="0.8"/><line x1="480" y1="0" x2="480" y2="28" stroke="#162e4a" stroke-width="0.8"/><line x1="580" y1="0" x2="580" y2="28" stroke="#162e4a" stroke-width="0.8"/>
<ellipse cx="340" cy="28" rx="160" ry="40" class="gl8"/>
<polygon points="240,24 310,24 430,390 290,390" class="ray8"/>
<polygon points="310,24 380,24 450,390 360,390" fill="#ffffff" opacity="0.010"/>
<rect x="222" y="24" width="56" height="7" rx="1" fill="#162e4a" opacity="0.9"/>
<rect x="402" y="24" width="56" height="7" rx="1" fill="#162e4a" opacity="0.8"/>
<rect x="0" y="376" width="680" height="44" class="fl8"/>
<line x1="0" y1="376" x2="680" y2="376" stroke="#102030" stroke-width="1"/>
<g><rect x="10" y="36" width="12" height="340" class="up8"/><rect x="90" y="36" width="12" height="340" class="up8"/><rect x="10" y="36" width="92" height="9" class="bm8"/><rect x="10" y="100" width="92" height="9" class="bm8"/><rect x="10" y="164" width="92" height="9" class="bm8"/><rect x="10" y="228" width="92" height="9" class="bm8"/><rect x="10" y="292" width="92" height="9" class="bm8"/><rect x="10" y="356" width="92" height="9" class="bm8"/><rect x="13" y="45" width="86" height="50" class="pl8"/><rect x="13" y="109" width="86" height="50" class="pl8b"/><rect x="13" y="173" width="86" height="50" class="pl8"/><rect x="13" y="237" width="86" height="50" class="pl8b"/><rect x="13" y="301" width="86" height="50" class="pl8"/><circle cx="16" cy="74" r="3.5" fill="#060f18"/><circle cx="16" cy="138" r="3.5" fill="#060f18"/><circle cx="16" cy="202" r="3.5" fill="#060f18"/><circle cx="16" cy="266" r="3.5" fill="#060f18"/><circle cx="16" cy="330" r="3.5" fill="#060f18"/></g>
<g><rect x="160" y="36" width="11" height="340" class="up8"/><rect x="264" y="36" width="11" height="340" class="up8"/><rect x="160" y="36" width="115" height="8" class="bm8"/><rect x="160" y="98" width="115" height="8" class="bm8"/><rect x="160" y="160" width="115" height="8" class="bm8"/><rect x="160" y="222" width="115" height="8" class="bm8"/><rect x="160" y="284" width="115" height="8" class="bm8"/><rect x="160" y="346" width="115" height="8" class="bm8"/><rect x="163" y="44" width="109" height="49" class="pl8b"/><rect x="163" y="106" width="109" height="49" class="pl8"/><rect x="163" y="168" width="109" height="49" class="pl8b"/><rect x="163" y="230" width="109" height="49" class="pl8"/><rect x="163" y="292" width="109" height="49" class="pl8b"/><circle cx="166" cy="69" r="3" fill="#060f18"/><circle cx="166" cy="131" r="3" fill="#060f18"/><circle cx="166" cy="193" r="3" fill="#060f18"/><circle cx="166" cy="255" r="3" fill="#060f18"/><circle cx="166" cy="317" r="3" fill="#060f18"/></g>
<g><rect x="284" y="36" width="10" height="340" class="up8"/><rect x="386" y="36" width="10" height="340" class="up8"/><rect x="284" y="36" width="112" height="8" class="bm8" style="fill:#162e4c"/><rect x="284" y="96" width="112" height="8" class="bm8" style="fill:#162e4c"/><rect x="284" y="156" width="112" height="8" class="bm8" style="fill:#162e4c"/><rect x="284" y="216" width="112" height="8" class="bm8" style="fill:#162e4c"/><rect x="284" y="276" width="112" height="8" class="bm8" style="fill:#162e4c"/><rect x="284" y="336" width="112" height="8" class="bm8" style="fill:#162e4c"/><rect x="287" y="44" width="106" height="47" class="pl8" style="fill:#0e2235"/><rect x="287" y="104" width="106" height="47" class="pl8b" style="fill:#0c2030"/><rect x="287" y="164" width="106" height="47" class="pl8" style="fill:#0e2235"/><rect x="287" y="224" width="106" height="47" class="pl8b" style="fill:#0c2030"/><rect x="287" y="284" width="106" height="47" class="pl8" style="fill:#0e2235"/><circle cx="290" cy="68" r="3" fill="#060f18"/><circle cx="290" cy="128" r="3" fill="#060f18"/><circle cx="290" cy="188" r="3" fill="#060f18"/><circle cx="290" cy="248" r="3" fill="#060f18"/><circle cx="290" cy="308" r="3" fill="#060f18"/></g>
<g><rect x="406" y="36" width="11" height="340" class="up8"/><rect x="510" y="36" width="11" height="340" class="up8"/><rect x="406" y="36" width="115" height="8" class="bm8"/><rect x="406" y="98" width="115" height="8" class="bm8"/><rect x="406" y="160" width="115" height="8" class="bm8"/><rect x="406" y="222" width="115" height="8" class="bm8"/><rect x="406" y="284" width="115" height="8" class="bm8"/><rect x="406" y="346" width="115" height="8" class="bm8"/><rect x="409" y="44" width="109" height="49" class="pl8b"/><rect x="409" y="106" width="109" height="49" class="pl8"/><rect x="409" y="168" width="109" height="49" class="pl8b"/><rect x="409" y="230" width="109" height="49" class="pl8"/><rect x="409" y="292" width="109" height="49" class="pl8b"/><circle cx="412" cy="69" r="3" fill="#060f18"/><circle cx="412" cy="131" r="3" fill="#060f18"/><circle cx="412" cy="193" r="3" fill="#060f18"/><circle cx="412" cy="255" r="3" fill="#060f18"/><circle cx="412" cy="317" r="3" fill="#060f18"/></g>
<g><rect x="578" y="36" width="12" height="340" class="up8"/><rect x="658" y="36" width="12" height="340" class="up8"/><rect x="578" y="36" width="92" height="9" class="bm8"/><rect x="578" y="100" width="92" height="9" class="bm8"/><rect x="578" y="164" width="92" height="9" class="bm8"/><rect x="578" y="228" width="92" height="9" class="bm8"/><rect x="578" y="292" width="92" height="9" class="bm8"/><rect x="578" y="356" width="92" height="9" class="bm8"/><rect x="581" y="45" width="86" height="50" class="pl8b"/><rect x="581" y="109" width="86" height="50" class="pl8"/><rect x="581" y="173" width="86" height="50" class="pl8b"/><rect x="581" y="237" width="86" height="50" class="pl8"/><rect x="581" y="301" width="86" height="50" class="pl8b"/><circle cx="584" cy="74" r="3.5" fill="#060f18"/><circle cx="584" cy="138" r="3.5" fill="#060f18"/><circle cx="584" cy="202" r="3.5" fill="#060f18"/><circle cx="584" cy="266" r="3.5" fill="#060f18"/><circle cx="584" cy="330" r="3.5" fill="#060f18"/></g>
</svg>